<svg width="1200" height="1200" viewBox="0 0 1200 1200" fill="none" xmlns="http://www.w3.org/2000/svg">
<rect width="1200" height="1200" rx="128" fill="#FF00A8"/>
<path d="M200 783.282V416H622.325C655.469 416 685.154 420.017 711.379 428.051C737.967 435.703 758.911 448.711 774.208 467.075C789.87 485.439 797.701 510.499 797.701 542.253C797.701 564.826 793.513 583.19 785.135 597.346C777.122 611.119 766.013 621.831 751.808 629.483C737.603 636.752 721.759 641.917 704.276 644.978C735.6 648.038 756.907 654.16 768.198 663.342C779.49 672.141 785.135 685.914 785.135 704.661V783.282H648.549V721.877C648.549 710.4 646.364 701.791 641.993 696.053C637.986 689.931 628.881 685.723 614.676 683.427C600.835 681.132 579.345 679.984 550.207 679.984H336.586V783.282H200ZM336.586 584.146H622.325C633.251 584.146 642.357 582.233 649.642 578.408C657.291 574.582 661.115 567.313 661.115 556.6C661.115 546.653 657.291 539.958 649.642 536.515C642.357 532.689 633.251 530.776 622.325 530.776H336.586V584.146Z" fill="white"/>
<path d="M1000 691.462C1000 742.173 958.831 783.282 908.046 783.282C857.261 783.282 816.092 742.173 816.092 691.462C816.092 640.751 857.261 599.641 908.046 599.641C958.831 599.641 1000 640.751 1000 691.462Z" fill="white"/>
</svg>
